<svg width="100" height="100" viewBox="0 0 100 100" fill="none" xmlns="http://www.w3.org/2000/svg">
<rect width="100" height="100" rx="20" fill="white"/>
<path d="M80 72.5H20C19.337 72.5 18.7011 72.2366 18.2322 71.7678C17.7634 71.2989 17.5 70.663 17.5 70C17.5 69.337 17.7634 68.7011 18.2322 68.2322C18.7011 67.7634 19.337 67.5 20 67.5H80C80.663 67.5 81.2989 67.7634 81.7678 68.2322C82.2366 68.7011 82.5 69.337 82.5 70C82.5 70.663 82.2366 71.2989 81.7678 71.7678C81.2989 72.2366 80.663 72.5 80 72.5ZM75 80H25C24.337 80 23.7011 79.7366 23.2322 79.2678C22.7634 78.7989 22.5 78.163 22.5 77.5C22.5 76.837 22.7634 76.2011 23.2322 75.7322C23.7011 75.2634 24.337 75 25 75H75C75.663 75 76.2989 75.2634 76.7678 75.7322C77.2366 76.2011 77.5 76.837 77.5 77.5C77.5 78.163 77.2366 78.7989 76.7678 79.2678C76.2989 79.7366 75.663 80 75 80ZM15 52.5H12.5V60C12.5 61.3261 13.0268 62.5979 13.9645 63.5355C14.9021 64.4732 16.1739 65 17.5 65H25V62.5C24.9971 59.8487 23.9426 57.3069 22.0679 55.4321C20.1931 53.5574 17.6513 52.5029 15 52.5V52.5Z" fill="#37244C"/>
<path d="M85 47.5H87.5V37.5H85C81.0231 37.4955 77.2105 35.9136 74.3984 33.1016C71.5864 30.2895 70.0045 26.4769 70 22.5V20H30V22.5C29.9955 26.4769 28.4136 30.2895 25.6016 33.1016C22.7895 35.9136 18.9769 37.4955 15 37.5H12.5V47.5H15C18.9769 47.5045 22.7895 49.0864 25.6016 51.8984C28.4136 54.7105 29.9955 58.5231 30 62.5V65H70V62.5C70.0045 58.5231 71.5864 54.7105 74.3984 51.8984C77.2105 49.0864 81.0231 47.5045 85 47.5V47.5ZM50 57.5C47.0333 57.5 44.1332 56.6203 41.6664 54.972C39.1997 53.3238 37.2771 50.9811 36.1418 48.2403C35.0065 45.4994 34.7094 42.4834 35.2882 39.5736C35.867 36.6639 37.2956 33.9912 39.3934 31.8934C41.4912 29.7956 44.1639 28.367 47.0736 27.7882C49.9834 27.2094 52.9994 27.5065 55.7403 28.6418C58.4811 29.7771 60.8238 31.6997 62.472 34.1664C64.1203 36.6332 65 39.5333 65 42.5C64.9955 46.4769 63.4136 50.2895 60.6016 53.1016C57.7895 55.9136 53.9769 57.4955 50 57.5V57.5Z" fill="#37244C"/>
<path d="M50 52.5C55.5228 52.5 60 48.0228 60 42.5C60 36.9772 55.5228 32.5 50 32.5C44.4772 32.5 40 36.9772 40 42.5C40 48.0228 44.4772 52.5 50 52.5Z" fill="#37244C"/>
<path d="M75 62.5V65H82.5C83.8261 65 85.0979 64.4732 86.0355 63.5355C86.9732 62.5979 87.5 61.3261 87.5 60V52.5H85C82.3487 52.5029 79.8069 53.5574 77.9321 55.4321C76.0574 57.3069 75.0029 59.8487 75 62.5ZM85 32.5H87.5V25C87.5 23.6739 86.9732 22.4021 86.0355 21.4645C85.0979 20.5268 83.8261 20 82.5 20H75V22.5C75.0029 25.1513 76.0574 27.6931 77.9321 29.5679C79.8069 31.4426 82.3487 32.4971 85 32.5V32.5ZM25 22.5V20H17.5C16.1739 20 14.9021 20.5268 13.9645 21.4645C13.0268 22.4021 12.5 23.6739 12.5 25V32.5H15C17.6513 32.4971 20.1931 31.4426 22.0679 29.5679C23.9426 27.6931 24.9971 25.1513 25 22.5V22.5Z" fill="#37244C"/>
</svg>
